<svg width="610" height="281.833" viewBox="0 0 161.396 74.568" xml:space="preserve" xmlns="http://www.w3.org/2000/svg"><path style="color:#000;fill:#fff;stroke-linecap:round;stroke-linejoin:round;-inkscape-stroke:none" d="M37.459 0C16.791 0 0 16.71 0 37.285 0 57.86 16.79 74.568 37.459 74.568c20.668 0 37.459-16.708 37.459-37.283C74.918 16.71 58.128 0 37.459 0zm0 1c20.13 0 36.459 16.254 36.459 36.285 0 20.031-16.33 36.283-36.459 36.283C17.329 73.568 1 57.316 1 37.285 1 17.255 17.33 1 37.459 1zm0 1.137c-1.555 0-3.083.11-4.58.302a.5.5 0 0 0-.371.252l-27.2 48.647a.5.5 0 0 0-.019.451 35.064 35.064 0 0 0 3.756 6.373.5.5 0 0 0 .4.201l47.487.098a.5.5 0 0 0 .435-.746l-2.25-4.008a.5.5 0 0 0-.435-.254H11.404c-.671 0-1.175-.862-.845-1.44l28.064-49.11a.5.5 0 0 0-.424-.749c-.232-.005-.477-.017-.74-.017zm6.889.672a.5.5 0 0 0-.526.748L70.285 47.82a.5.5 0 0 0 .906-.107 35.033 35.033 0 0 0 1.58-10.428c0-17.072-12.212-31.29-28.423-34.476zm-3.332.312a.5.5 0 0 0-.43.252L13.498 50.777a.5.5 0 0 0 .434.748h4.56a.5.5 0 0 0 .434-.252l21.258-36.996a.5.5 0 0 0 .004-.002c0-.003.003-.005.004-.008a.807.807 0 0 1 .044-.078.5.5 0 0 0 .002-.002.75.75 0 0 1 .061-.078c.125-.143.311-.247.54-.307a.995.995 0 0 1 .372-.033.972.972 0 0 1 .49.276l.383.502 24.602 41.15a.5.5 0 0 0 .855.006 34.951 34.951 0 0 0 2.315-4.418.5.5 0 0 0-.03-.457L41.45 3.365a.5.5 0 0 0-.433-.244zm-11.944.02C13.612 6.885 2.146 20.743 2.146 37.285a35 35 0 0 0 1.739 10.906.5.5 0 0 0 .912.088L29.625 3.871a.5.5 0 0 0-.553-.73zm8.26.004L9.834 51.265h.29a.5.5 0 0 0-.435.253c-.724 1.269.254 2.935 1.715 2.935H54.39l1.687 3.006-46.347-.096a34.05 34.05 0 0 1-3.409-5.785L33.246 3.416a34.688 34.688 0 0 1 4.086-.271zm7.996.984c15.147 3.548 26.443 16.988 26.443 33.156 0 3.11-.483 6.095-1.263 8.955zm-17.203.377L4.545 46.682c-.862-2.993-1.399-6.126-1.399-9.397 0-15.643 10.577-28.726 24.979-32.78zm12.906.107 27.793 46.489c-.51 1.146-1.108 2.24-1.736 3.316L42.928 14.01a.5.5 0 0 0-.033-.047l-.43-.565a.5.5 0 0 0-.04-.044 1.975 1.975 0 0 0-1.034-.573.5.5 0 0 0-.022-.004 1.948 1.948 0 0 0-.78.057 2.043 2.043 0 0 0-1.042.615 1.78 1.78 0 0 0-.14.184.5.5 0 0 0-.028.047l-.002.002c-.017.027-.032.056-.047.084a.5.5 0 0 0-.01.006L18.203 50.526h-3.41zm.055 12.537a.5.5 0 0 0-.43.256l-2.224 3.979a.5.5 0 0 0 .006.5L56.34 51.934a.5.5 0 0 0-.002.006l.01.013.008.012a.815.815 0 0 1 .05.082l.005.008.002.004h.002l3.974 6.893a.5.5 0 0 0 0 .002.75.75 0 0 1 .026.047c.07.144.09.312.07.513a.5.5 0 0 0-.002.047c-.005.502-.422 1.014-.94 1.014l-47.482-.096a.5.5 0 0 0-.365.842 35.4 35.4 0 0 0 4.125 3.738.5.5 0 0 0 .305.106h42.666a.5.5 0 0 0 .304-.106 35.38 35.38 0 0 0 6.54-6.582.5.5 0 0 0 .03-.559L41.525 17.395a.5.5 0 0 0-.437-.244zm.021 1.5 23.516 39.47a34.384 34.384 0 0 1-6.021 6.044H16.318c-1.053-.821-2.012-1.748-2.96-2.683l46.183.093a.5.5 0 0 0 .002 0c1.116.001 1.915-.964 1.934-1.986.03-.325.003-.683-.162-1.024a.5.5 0 0 0 0-.002 1.742 1.742 0 0 0-.061-.11v-.003l-3.957-6.857-.016-.028-.008-.015a.5.5 0 0 0-.004-.002c-.009-.017-.021-.033-.03-.049a.5.5 0 0 0 0-.01l-.015-.023-.002-.004-17.777-29.84zm-3.97 5.319a.5.5 0 0 0-.43.25L21.45 50.775a.5.5 0 0 0 .434.75H52.96a.5.5 0 0 0 .43-.755L37.57 24.213a.5.5 0 0 0-.434-.244zm.011 1.49L52.08 50.525H22.746zM20.576 67.092a.5.5 0 0 0-.242.937 35.308 35.308 0 0 0 17.125 4.405 35.3 35.3 0 0 0 17.123-4.405.5.5 0 0 0-.242-.937zm2.217 1h29.33c-4.454 2.104-9.4 3.342-14.664 3.342-5.264 0-10.212-1.238-14.666-3.342zM37.458.5C17.06.5.5 16.982.5 37.285c0 20.303 16.56 36.784 36.958 36.784 20.4 0 36.96-16.481 36.96-36.784C74.417 16.982 57.857.5 37.457.5zm0 2.136c.245 0 .487.013.73.018L10.125 51.766h-.001c-.527.923.214 2.187 1.28 2.187h43.277l2.251 4.007-47.487-.097a34.557 34.557 0 0 1-3.7-6.282L32.943 2.936c1.48-.19 2.984-.3 4.515-.3zm6.793.663c15.982 3.142 28.02 17.152 28.02 33.986 0 3.58-.546 7.032-1.556 10.279zm-3.23.323 28.375 47.463a34.46 34.46 0 0 1-2.28 4.356L42.497 14.267l-.431-.566a1.471 1.471 0 0 0-.77-.429 1.467 1.467 0 0 0-.583.046 1.548 1.548 0 0 0-.791.461 1.302 1.302 0 0 0-.182.27l.014-.028-21.262 37.004h-4.56zm-11.832.005L4.361 48.035a34.495 34.495 0 0 1-1.715-10.75c0-16.31 11.303-29.967 26.543-33.658zM41.093 17.65l24.144 40.524a34.884 34.884 0 0 1-6.446 6.49H16.126a34.9 34.9 0 0 1-4.067-3.686l47.483.096h.001c.82.001 1.432-.744 1.44-1.51a1.435 1.435 0 0 0-.118-.782 1.236 1.236 0 0 0-.044-.081l-3.981-6.903.014.027a1.29 1.29 0 0 0-.1-.164l.055.082L38.868 21.63zm-3.953 6.818L52.96 51.025h-31.08zM20.577 67.592H54.34a34.797 34.797 0 0 1-16.882 4.341 34.797 34.797 0 0 1-16.881-4.34z"/><path style="font-style:italic;font-weight:700;font-size:64.5132px;display:inline;fill:#fff;stroke-width:1.00802" d="m119.749 4.866-7.097 10.515-.774 8.839-.58 7.226 7.547 4.644 2.517-28.708c.129-1.333-.409-2.172-1.613-2.516zM81.429 8.09l-2.452 28.257 4.257 2.645 4-6 .194-1.806.58-6.967 1.033-11.483zm33.03 26.903-4 6-.258 2.709-.516 6.064-.904 10.193-.064.387-.065.904 7.613 4.644 2.451-28.256zm-35.612 2.903-2.516 28.708c-.129 1.334.409 2.172 1.613 2.516l7.097-10.516.774-8.838.452-5.29.128-1.935-3.548-2.194-.322-.193zm5.935 23.354-5.354 7.999h33.87c1.376 0 2.279-.623 2.709-1.87l-10-6.13H87.3zM126.455 4.737c-1.376 0-2.28.624-2.71 1.87l10 6.13h21.225l5.355-8h-20.58zm12.45 9.29-.45 5.548 2.709 14.838 5.29-14.838.452-5.548zm1.743 25.547-5.29 14.838-.452 5.548h8l.451-5.548zM126.842 61.25l-5.355 7.999h33.87c1.376 0 2.28-.623 2.71-1.87l-10-6.13h-18.709z"/></svg>
